<svg id="Layer_1" data-name="Layer 1" xmlns="http://www.w3.org/2000/svg" viewBox="0 0 625.48 388.33"><defs><style>.cls-1{fill:#ff5f00;}.cls-1,.cls-2,.cls-3{fill-rule:evenodd;}.cls-2{fill:#eb001b;}.cls-3{fill:#f79e1b;}</style></defs><title>Mastercard Logo Vector</title><g id="Components---Sprint-3"><g id="assets-_-logo-_-mastercard-_-symbol" data-name="assets-/-logo-/-mastercard-/-symbol"><polygon id="Fill-1" class="cls-1" points="228.17 346.82 397.31 346.82 397.31 41.52 228.17 41.52 228.17 346.82"/><path id="Fill-2" class="cls-2" d="M426.17,500A194.12,194.12,0,0,1,500,347.35a191.92,191.92,0,0,0-119.46-41.51c-106.75,0-193.28,86.93-193.28,194.16s86.53,194.17,193.28,194.17A191.93,191.93,0,0,0,500,652.65,194.12,194.12,0,0,1,426.17,500" transform="translate(-187.26 -305.83)"/><path id="Fill-4" class="cls-3" d="M806.7,620.32v-7.54h-2L802.49,618l-2.25-5.18h-2v7.54h1.38v-5.69l2.11,4.9h1.44l2.11-4.91v5.7Zm-12.4,0v-6.25h2.51v-1.28h-6.39v1.28h2.51v6.25ZM812.74,500c0,107.23-86.54,194.16-193.28,194.16A191.92,191.92,0,0,1,500,652.65a194.72,194.72,0,0,0,0-305.3,191.93,191.93,0,0,1,119.46-41.52c106.74,0,193.28,86.94,193.28,194.17Z" transform="translate(-187.26 -305.83)"/></g></g></svg>