<?xml version="1.0" encoding="iso-8859-1"?>
<!-- Generator: Adobe Illustrator 27.0.0, SVG Export Plug-In . SVG Version: 6.00 Build 0)  -->
<svg version="1.1" id="Layer_1" xmlns="http://www.w3.org/2000/svg" xmlns:xlink="http://www.w3.org/1999/xlink" x="0px" y="0px"
	 viewBox="0 0 500 500" style="enable-background:new 0 0 500 500;" xml:space="preserve">
<g>
	<path style="fill-rule:evenodd;clip-rule:evenodd;fill:#009DE2;" d="M64.264,221.147h30.753c16.51,0,22.727,8.358,21.767,20.657
		c-1.583,20.275-13.841,31.486-30.101,31.486h-8.209c-2.228,0-3.728,1.473-4.334,5.476l-3.522,23.243
		c-0.229,1.51-1.023,2.396-2.216,2.504H49.119c-1.814,0-2.46-1.388-1.985-4.395l11.776-74.56
		C59.382,222.569,61.016,221.147,64.264,221.147z"/>
	<path style="fill-rule:evenodd;clip-rule:evenodd;fill:#113984;" d="M197.764,219.769c10.378,0,19.949,5.626,18.639,19.656
		c-1.553,16.632-10.517,25.895-24.615,25.933H179.49c-1.773,0-2.625,1.441-3.091,4.408l-2.373,15.138
		c-0.358,2.286-1.529,3.414-3.265,3.414h-11.453c-1.827,0-2.464-1.167-2.057-3.778l9.468-60.678c0.466-2.984,1.607-4.094,3.63-4.094
		H197.764L197.764,219.769z M179.108,252.25l9.33,0.002c5.832-0.22,9.711-4.259,10.1-11.548c0.241-4.501-2.798-7.721-7.638-7.699
		l-8.783,0.04L179.108,252.25L179.108,252.25z M247.538,283.667c1.046-0.949,2.114-1.446,1.959-0.272l-0.372,2.812
		c-0.194,1.465,0.39,2.249,1.757,2.249h10.175c1.712,0,2.548-0.694,2.97-3.343l6.27-39.356c0.315-1.977-0.163-2.948-1.666-2.948
		h-11.187c-1.01,0-1.498,0.567-1.762,2.107l-0.415,2.423c-0.216,1.265-0.795,1.483-1.332,0.211c-1.9-4.496-6.741-6.511-13.531-6.371
		c-15.695,0.323-26.277,12.237-27.408,27.51c-0.875,11.814,7.592,21.091,18.748,21.091
		C239.84,289.78,243.461,287.366,247.538,283.667L247.538,283.667z M239.023,277.621c-6.756,0-11.465-5.388-10.482-11.995
		c0.983-6.606,7.295-11.994,14.051-11.994s11.465,5.388,10.482,11.994C252.091,272.233,245.779,277.621,239.023,277.621
		L239.023,277.621z M290.223,242.683h-10.28c-2.131,0-2.996,1.559-2.319,3.541l12.81,37.516l-12.623,17.843
		c-1.053,1.489-0.241,2.851,1.245,2.851h11.599c1.731,0,2.576-0.442,3.447-1.692l39.399-56.518c1.214-1.741,0.641-3.563-1.348-3.565
		l-10.966-0.012c-1.882-0.002-2.638,0.743-3.718,2.31L301.036,268.8l-7.311-23.884C293.275,243.444,292.2,242.683,290.223,242.683z"
		/>
	<path style="fill-rule:evenodd;clip-rule:evenodd;fill:#009DE2;" d="M374.506,219.769c10.378,0,19.95,5.626,18.639,19.656
		c-1.553,16.632-10.517,25.895-24.615,25.933h-12.299c-1.773,0-2.625,1.441-3.09,4.408l-2.374,15.138
		c-0.358,2.286-1.529,3.414-3.266,3.414h-11.453c-1.827,0-2.464-1.167-2.057-3.778l9.468-60.678c0.466-2.984,1.607-4.094,3.63-4.094
		H374.506L374.506,219.769z M355.85,252.25l9.33,0.002c5.832-0.22,9.711-4.259,10.1-11.548c0.24-4.501-2.799-7.721-7.638-7.699
		l-8.783,0.04L355.85,252.25L355.85,252.25z M424.279,283.667c1.046-0.949,2.114-1.446,1.959-0.272l-0.372,2.812
		c-0.194,1.465,0.39,2.249,1.758,2.249h10.175c1.711,0,2.548-0.694,2.97-3.343l6.27-39.356c0.315-1.977-0.163-2.948-1.666-2.948
		h-11.187c-1.009,0-1.498,0.567-1.762,2.107l-0.415,2.423c-0.216,1.265-0.795,1.483-1.332,0.211c-1.9-4.496-6.741-6.511-13.53-6.371
		c-15.696,0.323-26.277,12.237-27.408,27.51c-0.875,11.814,7.592,21.091,18.747,21.091
		C416.582,289.78,420.203,287.366,424.279,283.667L424.279,283.667z M415.765,277.621c-6.756,0-11.465-5.388-10.482-11.995
		c0.983-6.606,7.295-11.994,14.05-11.994c6.756,0,11.465,5.388,10.482,11.994C428.833,272.233,422.521,277.621,415.765,277.621
		L415.765,277.621z M462.7,288.526h-11.744c-0.933,0-1.581-0.731-1.44-1.625l10.328-65.369c0.141-0.894,1.02-1.625,1.953-1.625
		h11.744c0.933,0,1.581,0.731,1.44,1.625l-10.328,65.369C464.511,287.795,463.633,288.526,462.7,288.526z"/>
	<path style="fill-rule:evenodd;clip-rule:evenodd;fill:#113984;" d="M45.038,195.488h30.784c8.67,0,18.953,0.281,25.832,6.348
		c4.595,4.053,7.007,10.51,6.45,17.442c-1.888,23.506-15.948,36.672-34.803,36.672H58.118c-2.584,0-4.297,1.712-5.026,6.35
		l-4.237,26.951c-0.275,1.749-1.033,2.779-2.416,2.903H27.476c-2.104,0-2.852-1.609-2.302-5.096l13.655-86.456
		C39.377,197.137,41.272,195.488,45.038,195.488z"/>
	<path style="fill-rule:evenodd;clip-rule:evenodd;fill:#172C70;" d="M53.534,259.583l5.376-34.026
		c0.472-2.988,2.106-4.41,5.354-4.41h30.753c5.091,0,9.204,0.795,12.427,2.26c-3.09,20.919-16.62,32.544-34.34,32.544H57.922
		C55.923,255.95,54.431,256.971,53.534,259.583z"/>
</g>
</svg>
