<?xml version="1.0" encoding="iso-8859-1"?>
<!-- Generator: Adobe Illustrator 27.0.0, SVG Export Plug-In . SVG Version: 6.00 Build 0)  -->
<svg version="1.1" id="Layer_1" xmlns="http://www.w3.org/2000/svg" xmlns:xlink="http://www.w3.org/1999/xlink" x="0px" y="0px"
	 viewBox="0 0 500 500" style="enable-background:new 0 0 500 500;" xml:space="preserve">
<g>
	<polygon style="fill:#100E10;" points="25,283.707 56.27,283.707 56.27,252.446 25,252.446 25,283.707 	"/>
	<polygon style="fill:#64AA1F;" points="129.209,283.588 115.652,283.588 115.652,235.683 164.435,235.683 164.435,283.588
		150.887,283.588 150.887,244.988 129.209,244.988 129.209,283.588 	"/>
	<path style="fill:#64AA1F;" d="M182.906,266.137c0-9.713,5.999-11.632,9.773-11.632c3.7,0,9.696,1.919,9.696,11.632
		c0,6.026-2.552,11.77-9.696,11.77C185.375,277.906,182.906,272.163,182.906,266.137L182.906,266.137z M170.997,248.82
		L170.997,248.82v47.426h12.493v-16.229c4.18,4.54,11,4.865,12.643,4.865c11.904,0,19.21-7.584,19.21-18.616
		c0-11.491-7.212-18.747-18.964-18.747c-2.957,0-8.709,0.485-13.473,5.482h-0.248l0.086-4.181H170.997L170.997,248.82z"/>
	<path style="fill:#64AA1F;" d="M246.309,279.409c-4.604,4.315-9.036,5.472-13.962,5.472c-13.464,0-13.963-10.118-13.963-14.301
		v-21.76h12.485v20.127c0,6.907,2.38,8.96,6.99,8.96c7.873,0,8.451-7.05,8.451-9.581V248.82h12.48v34.768h-12.48V279.409
		L246.309,279.409z"/>
	<path style="fill:#64AA1F;" d="M276.69,255.807h6.735c3.529,0,6.566,0.542,6.566,3.415c0,3.147-4.758,3.218-6.816,3.218h-6.485
		V255.807L276.69,255.807z M264.207,248.82L264.207,248.82v34.768h24.795c9.038,0,15.281-1.784,15.281-8.896
		c0-5.477-3.044-7.868-9.941-9.103v-0.208c4.521-0.61,8.459-3.416,8.459-8.139c0-8.423-9.851-8.423-13.713-8.423H264.207
		L264.207,248.82z M276.69,268.946L276.69,268.946h7.637c5.92,0,7.138,1.769,7.138,4.1c0,1.504-0.814,3.557-6.978,3.557h-7.797
		V268.946L276.69,268.946z"/>
	<path style="fill:#64AA1F;" d="M334.5,269.215c0,6.983-6.073,8.691-9.115,8.691c-2.295,0-6.404-0.749-6.404-4.035
		c0-3.91,4.676-4.656,7.313-5.003c4.836-0.683,4.431-0.474,8.207-1.836V269.215L334.5,269.215z M320.043,260.052L320.043,260.052
		c0-5.141,5.414-5.547,7.643-5.547c1.396,0,6.569,0.071,6.739,4.581c0,0.343,0,0.62,0,0.966c-0.253,3.42-3.541,2.727-12.734,3.896
		c-7.559,1.023-15.525,2.944-15.525,10.878c0,2.876,1.239,10.056,14.539,10.056c5.095,0,10.673-1.293,13.962-4.721h0.247
		l1.067,3.427h13.13v-0.616c-2.374-0.479-2.539-2.811-2.456-6.574l0.245-15.876c0.085-4.028-0.328-13.003-19.138-13.003
		c-4.514,0-19.042,0.412-19.627,12.534H320.043L320.043,260.052z"/>
	<polygon style="fill:#64AA1F;" points="348.3,255.807 348.3,248.82 388.37,248.82 388.37,255.807 374.57,255.807 374.57,283.588
		362.092,283.588 362.092,255.807 348.3,255.807 	"/>
	<path style="fill:#64AA1F;" d="M25.037,203.755v38.908h8.271c21.751,0,32.789,11.037,32.789,32.788v8.268h38.912v-79.964H25.037
		L25.037,203.755z M88.476,220.287L88.476,220.287c0,10.624,0,36.271,0,46.899c-2.976,0-3.492,0-6.377,0
		c-2.75-23.194-17.336-37.764-40.528-40.516c0-2.894,0-3.407,0-6.384C52.198,220.287,77.849,220.287,88.476,220.287L88.476,220.287z
		"/>
	<g>
		<path d="M430.003,272.804v9.828h-37.09c0.402-3.715,1.607-7.236,3.615-10.562c2.008-3.326,5.975-7.738,11.899-13.236
			c4.77-4.443,7.694-7.456,8.774-9.037c1.456-2.184,2.184-4.343,2.184-6.477c0-2.36-0.634-4.173-1.902-5.441
			c-1.268-1.268-3.019-1.902-5.253-1.902c-2.209,0-3.966,0.665-5.272,1.996c-1.305,1.33-2.058,3.54-2.259,6.627l-10.543-1.054
			c0.628-5.824,2.598-10.004,5.912-12.539c3.314-2.535,7.456-3.803,12.426-3.803c5.447,0,9.727,1.469,12.84,4.406
			c3.113,2.937,4.669,6.59,4.669,10.958c0,2.485-0.446,4.851-1.337,7.098c-0.891,2.247-2.303,4.6-4.236,7.06
			c-1.28,1.632-3.59,3.979-6.928,7.041c-3.339,3.063-5.454,5.096-6.345,6.1c-0.891,1.004-1.613,1.983-2.165,2.937H430.003z"/>
		<path d="M457.905,282.632v-11.108h-22.593v-9.263l23.948-35.056h8.886v35.019H475v9.301h-6.853v11.108H457.905z M457.905,262.224
			v-18.865l-12.69,18.865H457.905z"/>
	</g>
</g>
</svg>
