<?xml version="1.0" encoding="iso-8859-1"?>
<!-- Generator: Adobe Illustrator 26.0.1, SVG Export Plug-In . SVG Version: 6.00 Build 0)  -->
<svg version="1.1" id="Layer_1" xmlns="http://www.w3.org/2000/svg" xmlns:xlink="http://www.w3.org/1999/xlink" x="0px" y="0px"
	 viewBox="0 0 500 500" style="enable-background:new 0 0 500 500;" xml:space="preserve">
<g>
	<g>
		<path style="fill:#1A1F71;" d="M428.322,179.488c4.375,0.002,8.763,0.209,13.121-0.065c3.346-0.21,4.728,0.999,5.386,4.277
			c3.464,17.256,7.134,34.471,10.733,51.7c5.662,27.105,11.319,54.211,16.994,81.313c0.862,4.115,0.801,4.285-3.251,4.298
			c-8.862,0.027-17.725-0.055-26.587,0.044c-2.689,0.03-4.024-0.758-4.474-3.648c-0.775-4.977-2.1-9.865-3.049-14.818
			c-0.38-1.983-1.192-2.855-3.33-2.843c-13.573,0.074-27.147,0.076-40.72-0.004c-1.941-0.011-2.837,0.786-3.427,2.465
			c-1.858,5.29-3.844,10.535-5.651,15.842c-0.725,2.129-1.966,3.001-4.213,2.989c-10.769-0.061-21.539-0.078-32.308,0.014
			c-3.281,0.028-3.136-1.364-2.137-3.738c10.047-23.878,20.044-47.777,30.051-71.672c7.624-18.205,15.281-36.396,22.846-54.626
			c3.209-7.732,8.935-11.501,17.227-11.526C419.796,179.475,424.059,179.486,428.322,179.488z M419.993,220.363
			c-0.616,0.71-0.823,0.852-0.894,1.044c-5.611,15.372-11.191,30.756-16.834,46.116c-0.948,2.58,0.359,2.852,2.393,2.842
			c7.513-0.037,15.027-0.064,22.539,0.014c2.364,0.025,3.179-0.583,2.615-3.143c-2.17-9.848-4.132-19.742-6.186-29.616
			C422.467,232.045,421.281,226.475,419.993,220.363z"/>
		<path style="fill:#1A1F71;" d="M120.429,272.953c2.395-6.006,4.807-12.005,7.181-18.019c9.515-24.103,19.052-48.198,28.472-72.338
			c0.946-2.425,2.307-3.175,4.772-3.152c10.323,0.097,20.647,0.033,30.971,0.045c4.4,0.005,4.541,0.21,2.821,4.317
			c-10.749,25.66-21.514,51.314-32.27,76.971c-7.937,18.932-15.918,37.846-23.747,56.822c-1.087,2.635-2.628,3.487-5.334,3.461
			c-10.435-0.103-20.872-0.095-31.307-0.01c-2.628,0.021-3.927-0.745-4.641-3.538c-9.251-36.183-18.757-72.301-27.912-108.508
			c-1.786-7.065-5.498-11.686-12.119-14.522c-9.423-4.036-19.139-7.055-29.088-9.416c-1.877-0.445-3.919-0.783-2.999-3.657
			c0.586-1.831,1.953-1.921,3.466-1.921c6.845,0.001,13.69-0.004,20.535-0.004c12.456-0.001,24.912-0.016,37.367,0.005
			c9.704,0.016,16.333,5.095,18.201,14.602c4.15,21.124,8.026,42.301,12.024,63.455c0.968,5.122,1.977,10.237,2.967,15.356
			C120.002,272.92,120.215,272.937,120.429,272.953z"/>
		<path style="fill:#1A1F71;" d="M318.913,176.815c10.742,0.128,21.181,1.975,31.4,5.278c2.579,0.834,3.226,2.057,2.601,4.697
			c-1.834,7.748-3.483,15.542-5.048,23.35c-0.558,2.787-1.562,3.485-4.33,2.324c-11.42-4.79-23.282-6.515-35.57-4.413
			c-3.375,0.577-6.428,1.994-8.932,4.403c-3.902,3.754-4.185,8.129-0.662,12.231c3.216,3.746,7.62,5.864,11.853,8.16
			c7.887,4.278,15.934,8.256,22.971,13.958c14.912,12.081,16.772,29.412,10.043,45.348c-6.455,15.287-19.152,23.361-34.511,27.57
			c-20.866,5.719-41.557,3.995-61.977-2.51c-4.54-1.446-4.542-1.63-3.552-6.226c1.701-7.894,3.557-15.757,5.082-23.685
			c0.574-2.982,1.66-3.091,4.059-1.912c11.955,5.875,24.615,8.23,37.892,7.237c4.785-0.358,9.259-1.692,13.175-4.571
			c5.794-4.26,6.118-11.759,0.737-16.543c-4.673-4.155-10.228-6.859-15.756-9.611c-7.361-3.665-14.298-7.913-20.28-13.681
			c-12.908-12.445-13.602-28.809-6.062-43.276c7.931-15.217,21.836-22.314,37.836-26.017
			C306.123,177.482,312.498,176.897,318.913,176.815z"/>
		<path style="fill:#1A1F71;" d="M229.57,179.488c4.935,0.003,9.875,0.142,14.803-0.047c3.249-0.125,3.736,1.135,3.103,4.03
			c-4.19,19.163-8.268,38.351-12.365,57.534c-5.361,25.1-10.764,50.191-15.989,75.32c-0.72,3.464-2.013,4.886-5.732,4.778
			c-8.965-0.26-17.943-0.078-26.915-0.086c-5.587-0.005-5.596-0.016-4.456-5.34c6.993-32.661,13.988-65.322,20.986-97.982
			c2.489-11.617,5.068-23.215,7.424-34.859c0.542-2.678,1.787-3.463,4.338-3.391C219.698,179.583,224.635,179.485,229.57,179.488z"
			/>
	</g>
</g>
</svg>
