<?xml version="1.0" encoding="iso-8859-1"?>
<!-- Generator: Adobe Illustrator 26.0.1, SVG Export Plug-In . SVG Version: 6.00 Build 0)  -->
<svg version="1.1" id="Layer_1" xmlns="http://www.w3.org/2000/svg" xmlns:xlink="http://www.w3.org/1999/xlink" x="0px" y="0px"
	 viewBox="0 0 500 500" style="enable-background:new 0 0 500 500;" xml:space="preserve">

<g>
	<g>
		<path style="fill-rule:evenodd;clip-rule:evenodd;fill:#135EAB;" d="M83.756,191.244c9.224,0,17.961,2.146,25.743,5.962
			c1.221,0.579,2.441,1.218,3.662,1.918l-5.405,4.844l-8.128-8.403l-13.716,12.234l-8.148-8.892L52.215,221.94l16.382,18.049
			l-6.438,5.662l16.133,18.081l-6.399,5.646l23.054,25.661l13.684-12.6l11.831,13.501c-2.35,1.829-4.916,3.551-7.739,5.145
			c-8.557,4.878-18.446,7.67-28.967,7.67C51.394,308.756,25,282.362,25,250S51.394,191.244,83.756,191.244L83.756,191.244z"/>
		<polygon style="fill-rule:evenodd;clip-rule:evenodd;fill:#135EAB;" points="73.047,246.287 87.018,233.706 99.599,247.677 
			85.628,260.258 73.047,246.287 		"/>
		<polygon style="fill-rule:evenodd;clip-rule:evenodd;fill:#135EAB;" points="82.985,270.43 96.956,257.85 109.536,271.822 
			95.564,284.404 82.985,270.43 		"/>
		<polygon style="fill-rule:evenodd;clip-rule:evenodd;fill:#135EAB;" points="63.048,222.428 77.02,209.848 89.6,223.819 
			75.628,236.399 63.048,222.428 		"/>
		<polygon style="fill-rule:evenodd;clip-rule:evenodd;fill:#135EAB;" points="88.688,215.658 99.167,206.222 108.602,216.702 
			98.123,226.137 88.688,215.658 		"/>
		<polygon style="fill-rule:evenodd;clip-rule:evenodd;fill:#135EAB;" points="107.309,258.871 117.787,249.436 127.222,259.917 
			116.744,269.351 107.309,258.871 		"/>
		<polygon style="fill-rule:evenodd;clip-rule:evenodd;fill:#135EAB;" points="116.523,280.036 127.003,270.601 136.438,281.079 
			125.959,290.514 116.523,280.036 		"/>
		<polygon style="fill-rule:evenodd;clip-rule:evenodd;fill:#135EAB;" points="120.747,231.525 127.733,225.235 134.024,232.222 
			127.037,238.512 120.747,231.525 		"/>
		<polygon style="fill-rule:evenodd;clip-rule:evenodd;fill:#135EAB;" points="111.82,210.77 118.805,204.48 125.095,211.467 
			118.11,217.757 111.82,210.77 		"/>
		<polygon style="fill-rule:evenodd;clip-rule:evenodd;fill:#135EAB;" points="129.676,252.282 136.662,245.992 142.953,252.978 
			135.966,259.268 129.676,252.282 		"/>
		<polygon style="fill-rule:evenodd;clip-rule:evenodd;fill:#135EAB;" points="98.349,236.728 108.826,227.293 118.261,237.772 
			107.784,247.207 98.349,236.728 		"/>
	</g>
	<path style="fill-rule:evenodd;clip-rule:evenodd;fill:#135EAB;" d="M304.359,227.431l-0.329,0.219l-0.328-0.219
		c-2.408-2.19-5.038-3.067-8.323-3.067c-7.557,0-12.487,5.258-12.487,13.472c0,0,0,37.566,0,38.442c0.768,0,6.791,0,7.557,0
		c0-0.877,0-38.442,0-38.442c0-5.476,3.724-5.915,4.929-5.915c0.877,0,2.191,0.219,3.285,1.095c1.096,1.095,1.643,2.629,1.643,4.82
		c0,0,0,37.566,0,38.442c0.768,0,6.791,0,7.559,0c0-0.877,0-38.442,0-38.442c0-5.476,3.724-5.915,4.927-5.915
		c0.877,0,2.191,0.219,3.287,1.095c1.094,1.095,1.643,2.629,1.643,4.82c0,0,0,37.566,0,38.442c0.766,0,6.789,0,7.555,0
		c0-0.877,0-38.442,0-38.442c0-4.271-1.312-7.777-3.722-10.186c-2.191-2.081-5.258-3.286-8.763-3.286
		C309.397,224.364,306.661,225.351,304.359,227.431z"/>
	<path style="fill-rule:evenodd;clip-rule:evenodd;fill:#135EAB;" d="M359.453,242.107c-2.519-2.629-6.683-4.928-12.378-4.928
		c-5.478,0-9.639,2.299-12.158,4.928c-3.942,4.273-4.71,10.296-4.71,15.004c0,4.601,0.768,10.627,4.71,14.897
		c2.519,2.628,6.68,4.927,12.158,4.927c5.695,0,9.859-2.3,12.378-4.927c3.942-4.27,4.707-10.296,4.707-14.897
		C364.16,252.404,363.395,246.38,359.453,242.107L359.453,242.107z M356.494,258.756c0,3.613,0,7.666-2.739,10.625
		c-1.096,1.094-3.176,2.519-6.68,2.519c-3.287,0-5.367-1.425-6.463-2.519c-2.739-2.958-2.739-7.011-2.739-10.625v-3.396
		c0-3.613,0-7.667,2.739-10.514c1.097-1.204,3.176-2.63,6.463-2.63c3.505,0,5.584,1.426,6.68,2.63
		c2.739,2.847,2.739,6.9,2.739,10.514V258.756z"/>
	<path style="fill-rule:evenodd;clip-rule:evenodd;fill:#135EAB;" d="M370.401,237.836l6.354,0.11v3.395
		c1.862-1.314,3.505-2.3,5.369-2.956c2.299-0.987,3.942-1.205,6.241-1.205c3.287,0,6.68,0.657,9.419,3.724
		c2.628,3.066,3.176,6.682,3.176,9.748v25.518h-7.011v-26.068c0-6.241-3.94-7.886-7.227-7.886s-6.68,1.426-9.417,3.943v30.01h-6.905
		v-32.748V237.836z"/>
	<path style="fill-rule:evenodd;clip-rule:evenodd;fill:#135EAB;" d="M435.243,268.723c-1.316,0.657-2.739,1.203-4.49,1.751
		c-2.082,0.659-3.724,0.985-5.917,0.985c-3.611,0-6.898-1.203-8.651-3.176c-1.314-1.314-2.737-3.942-2.737-8.543v-0.985h23.657
		v-1.751c0-6.135-0.22-11.174-4.053-15.227c-2.519-2.738-6.352-4.599-11.173-4.599c-5.367,0-9.308,2.299-11.717,5.037
		c-3.944,4.492-4.383,10.405-4.383,14.238c0,4.272,0.659,10.627,4.601,15.006c2.519,2.956,7.009,5.475,13.363,5.475
		c2.847,0,5.915-0.329,8.98-1.534c1.642-0.657,3.505-1.532,4.71-2.191L435.243,268.723L435.243,268.723z M413.448,252.843
		c0-4.383,1.423-6.902,2.521-8.108c1.092-1.203,2.845-2.519,5.802-2.519c1.973,0,3.942,0.438,5.369,1.863
		c2.519,2.409,2.519,5.367,2.519,7.996v1.642h-16.211V252.843z"/>
	<path style="fill-rule:evenodd;clip-rule:evenodd;fill:#135EAB;" d="M475,237.946l-15.004,45.124
		c-0.548,1.973-1.971,5.258-3.615,7.118c-1.971,2.193-4.599,3.178-7.557,3.178c-2.082,0-4.05-0.44-6.024-1.534
		c-1.203-0.768-2.41-1.534-3.178-2.41l3.287-4.164c0.548,0.55,1.314,1.099,1.973,1.534c1.094,0.659,2.41,0.987,3.613,0.987
		c2.082,0,3.396-1.094,4.053-1.971c0.766-0.985,1.531-3.285,2.082-4.71l0.877-3.067l-16.1-40.086h7.555l9.637,23.986
		c0.988,2.297,1.973,5.806,2.193,6.792h0.326c1.205-4.601,1.756-6.137,2.741-8.982l6.898-21.795H475z"/>
	<path style="fill-rule:evenodd;clip-rule:evenodd;fill:#135EAB;" d="M180.267,273.979l0.22-0.329l0.328,0.329
		c2.518,2.082,5.038,3.067,8.434,3.067c7.556,0,12.486-5.369,12.486-13.472c0,0,0-37.677,0-38.443c-0.768,0-6.9,0-7.667,0
		c0,0.767,0,38.443,0,38.443c0,5.475-3.724,5.806-4.818,5.806c-0.987,0-2.3-0.111-3.287-1.096c-1.095-0.985-1.642-2.628-1.642-4.71
		c0,0,0-37.677,0-38.443c-0.767,0-6.9,0-7.667,0c0,0.767,0,38.443,0,38.443c0,5.475-3.723,5.806-4.927,5.806
		c-0.877,0-2.192-0.111-3.177-1.096c-1.096-0.985-1.642-2.628-1.642-4.71c0,0,0-37.677,0-38.443c-0.768,0-6.9,0-7.667,0
		c0,0.767,0,38.443,0,38.443c0,4.164,1.314,7.666,3.724,10.076c2.19,2.191,5.367,3.396,8.762,3.396
		C175.12,277.046,177.857,275.952,180.267,273.979z"/>
	<path style="fill-rule:evenodd;clip-rule:evenodd;fill:#135EAB;" d="M236.893,268.723c-1.205,0.546-2.629,1.203-4.382,1.751
		c-2.08,0.659-3.724,0.985-5.914,0.985c-3.614,0-6.901-1.203-8.654-3.176c-1.204-1.314-2.628-3.942-2.628-8.543v-0.985h23.439
		v-1.751c0-6.135-0.219-11.174-3.943-15.227c-2.519-2.628-6.353-4.49-11.283-4.49c-5.147,0-9.089,2.3-11.499,4.928
		c-4.052,4.601-4.381,10.514-4.381,14.238c0,4.272,0.548,10.627,4.491,15.006c2.629,2.85,7.009,5.475,13.362,5.475
		c2.848,0,5.804-0.437,8.981-1.643c1.642-0.548,3.395-1.534,4.6-2.191L236.893,268.723L236.893,268.723z M215.315,252.843
		c0-4.383,1.314-6.792,2.519-8.108c0.985-1.093,2.738-2.519,5.694-2.519c1.973,0,3.945,0.548,5.369,1.972
		c2.518,2.3,2.518,5.258,2.518,7.995v1.534h-16.1V252.843z"/>
	<path style="fill-rule:evenodd;clip-rule:evenodd;fill:#135EAB;" d="M271.283,241.122c-2.739-2.41-6.572-3.834-10.514-3.834
		c-1.753,0-3.613,0.329-4.93,0.548c-1.094,0.327-2.519,0.876-3.723,1.314v-15.005h-6.9v48.737c4.053,2.41,8.872,4.053,14.348,4.053
		c4.05,0,9.53-0.875,13.47-6.024c3.178-4.272,3.835-9.637,3.835-14.018C276.869,252.73,276.54,245.612,271.283,241.122
		L271.283,241.122z M259.453,242.216c2.739,0,5.589,0.877,7.34,2.74c2.41,2.629,2.41,6.57,2.41,9.966v3.285
		c0,6.463-1.096,9.091-2.082,10.516c-1.096,1.425-3.394,3.176-7.337,3.176c-1.425,0-3.178-0.439-4.492-0.766
		c-0.983-0.331-2.188-0.985-3.175-1.536v-25.081"/>
</g>
</svg>
